<?xml version="1.0" encoding="UTF-8" standalone="no"?>
<!-- Created with Inkscape (http://www.inkscape.org/) -->

<svg
   xmlns:dc="http://purl.org/dc/elements/1.1/"
   xmlns:cc="http://creativecommons.org/ns#"
   xmlns:rdf="http://www.w3.org/1999/02/22-rdf-syntax-ns#"
   xmlns:svg="http://www.w3.org/2000/svg"
   xmlns="http://www.w3.org/2000/svg"
   xmlns:sodipodi="http://sodipodi.sourceforge.net/DTD/sodipodi-0.dtd"
   xmlns:inkscape="http://www.inkscape.org/namespaces/inkscape"
   width="100"
   height="100"
   viewBox="0 0 26.458334 26.458334"
   version="1.1"
   id="svg8"
   inkscape:version="0.92.4 (5da689c313, 2019-01-14)"
   sodipodi:docname="tools.svg">
  <defs
     id="defs2" />
  <sodipodi:namedview
     id="base"
     pagecolor="#ffffff"
     bordercolor="#666666"
     borderopacity="1.0"
     inkscape:pageopacity="0.0"
     inkscape:pageshadow="2"
     inkscape:zoom="2.8"
     inkscape:cx="6.7474887"
     inkscape:cy="39.417674"
     inkscape:document-units="px"
     inkscape:current-layer="layer1"
     showgrid="false"
     units="px"
     inkscape:window-width="1366"
     inkscape:window-height="705"
     inkscape:window-x="-8"
     inkscape:window-y="-8"
     inkscape:window-maximized="1" />
  <metadata
     id="metadata5">
    <rdf:RDF>
      <cc:Work
         rdf:about="">
        <dc:format>image/svg+xml</dc:format>
        <dc:type
           rdf:resource="http://purl.org/dc/dcmitype/StillImage" />
        <dc:title />
      </cc:Work>
    </rdf:RDF>
  </metadata>
  <g
     inkscape:label="Layer 1"
     inkscape:groupmode="layer"
     id="layer1"
     transform="translate(0,-270.54166)">
    <g
       aria-label="L"
       style="font-style:normal;font-weight:normal;font-size:10.58333302px;line-height:1.25;font-family:sans-serif;letter-spacing:0px;word-spacing:0px;fill:#000000;fill-opacity:1;stroke:none;stroke-width:0.26458332"
       id="text12" />
    <circle
       id="path9"
       cx="13.229167"
       cy="283.77081"
       r="13.176356"
       style="fill:#ffffff;fill-opacity:0;stroke:#dedede;stroke-width:0.1056221;stroke-miterlimit:4;stroke-dasharray:none;stroke-opacity:1" />
    <g
       transform="matrix(0.33468893,0,0,0.33468893,27.220559,253.97098)"
       id="g1162"
       style="stroke:#fe004a;stroke-width:1.58107018;stroke-miterlimit:4;stroke-dasharray:none;stroke-opacity:1">
      <path
         sodipodi:nodetypes="cssssccccccccccccssssccccccccccccssssccccccccccccsssscccccccccccc"
         inkscape:connector-curvature="0"
         id="path228-7"
         transform="scale(0.26458333)"
         d="m -140,275.15234 v -11.32617 c 0,-1.12624 -0.90696,-2.0332 -2.0332,-2.0332 h -31.9336 c -1.12624,0 -2.0332,0.90696 -2.0332,2.0332 v 11.32617 m 48.66992,5.24024 c -4.06791,-2.22114 -8.31712,-3.96446 -12.66992,-5.24024 m 38.12695,30.69727 8.003909,-8.00391 c 0.796358,-0.79637 0.79637,-2.07864 0,-2.875 l -22.582029,-22.58008 c -0.79642,-0.79629 -2.07871,-0.79624 -2.875,0 l -8.00391,8.00196 m 30.697268,38.12695 c -1.275779,-4.3528 -3.019101,-8.60201 -5.240238,-12.66992 m 5.240238,48.66992 h 11.326171 c 1.126245,0 2.033203,-0.90696 2.033203,-2.0332 v -31.9336 c 0,-1.12624 -0.906958,-2.0332 -2.033203,-2.0332 h -11.326171 m -5.240238,48.67188 c 2.221198,-4.06802 3.964451,-8.31896 5.240238,-12.67188 m -30.697268,38.12695 8.00391,8.00391 c 0.79641,0.79631 2.0787,0.79623 2.875,0 l 22.582029,-22.58203 c 0.796392,-0.79637 0.796347,-2.07862 0,-2.875 l -8.003909,-8.00195 M -140,397.88672 c 4.35281,-1.27578 8.60201,-3.01909 12.66992,-5.24024 M -176,397.88672 v 11.32812 c 0,1.12625 0.90696,2.03125 2.0332,2.03125 h 31.9336 c 1.12624,0 2.0332,-0.905 2.0332,-2.03125 v -11.32812 m -48.66992,-5.24024 c 4.06791,2.22114 8.31712,3.96446 12.66992,5.24024 m -38.12695,-30.69531 -8.00391,8.0039 c -0.79641,0.79639 -0.79638,2.07669 0,2.87305 l 22.58203,22.58203 c 0.79642,0.79627 2.07673,0.79627 2.87305,0 l 8.00586,-8.00391 m -30.69727,-38.12695 c 1.27579,4.35292 3.01904,8.60386 5.24024,12.67188 m -5.24024,-48.67188 h -11.32617 c -1.12624,0 -2.0332,0.90696 -2.0332,2.0332 v 31.9336 c 0,1.12624 0.90696,2.0332 2.0332,2.0332 h 11.32617 m 5.24024,-48.66992 c -2.22115,4.06791 -3.96446,8.31711 -5.24024,12.66992 m 30.69727,-38.12695 -8.00391,-8.00196 c -0.79642,-0.79629 -2.07868,-0.79626 -2.875,0 l -22.58203,22.58008 c -0.79639,0.79636 -0.7944,2.07862 0.002,2.875 l 8.00196,8.00391 M -176,275.15234 c -4.3528,1.27578 -8.60201,3.0191 -12.66992,5.24024 h 5e-5"
         style="fill:none;stroke:#fe004a;stroke-width:5.97569847;stroke-linecap:round;stroke-linejoin:round;stroke-miterlimit:4;stroke-dasharray:none;stroke-opacity:1" />
      <circle
         style="fill:none;stroke:#fe004a;stroke-width:1.58107018;stroke-miterlimit:4;stroke-dasharray:none;stroke-opacity:1"
         r="6.8791018"
         cy="89.03746"
         cx="-41.804165"
         id="path228-2-0" />
    </g>
  </g>
</svg>
